<svg xmlns="http://www.w3.org/2000/svg" id="Bug_editable_text" viewBox="26.87 26.72 729.61 84.98"><defs><style>.cls-1{fill:#231f20;}</style></defs><path class="cls-1" d="m49.44,51.28l31.73-23.5c.45-.34.22-1.06-.35-1.06h-26.01c-3.02,0-5.91,1.2-8.04,3.33l-16.57,16.56c-2.13,2.13-3.33,5.03-3.33,8.04v23.42c0,3.02,1.2,5.91,3.33,8.04l16.56,16.56c2.13,2.13,5.03,3.33,8.04,3.33h22.53c.63,0,.82-.85.25-1.12l-44.77-21.11c-1.87-.88-3.06-2.76-3.06-4.83v-11.23c0-1.17.56-2.28,1.5-2.98l6.45-4.78v-8.69h11.74Z"/><polygon class="cls-1" points="80.29 60.35 77.24 68.69 83.23 68.69 80.29 60.35"/><path class="cls-1" d="m54.54,60.68c0-2.66-1.82-3.05-3.75-3.05h-3.86v6.28h3.72c1.97,0,3.89-.26,3.89-3.23Z"/><path class="cls-1" d="m103.28,47.06l-15.42-15.42c-.87-.87-2.23-.99-3.24-.29l-29.68,19.99c5.62.35,9.02,2.63,9.02,7.82,0,4.53-2.45,7.35-6.58,7.84v.08c1.92.35,3.2,1.25,4.14,2.44.33.42.56.91.69,1.43l2.34,7.1,10.09-25.27c.35-.89,1.21-1.47,2.17-1.47h8.86l11.78,29.51h-7.29c-1.48,0-2.87-.94-3.49-2.34h0s-1.13-3.23-1.13-3.23h-10.71l-2.08,5.57h-15.99c-.85,0-1.58-.63-1.73-1.49l-2.66-7.73c-.37-1.32-1.69-1.53-2.98-1.53h-2.59v10.76h-9.1v-17.89l-5.45,3.67c-.49.34-.79.91-.79,1.51v11.39c0,.73.43,1.39,1.1,1.68l51.35,21.49c.95.41,2.06.2,2.8-.53l16.55-16.48c1.86-1.85,2.9-4.37,2.9-6.99v-24.66c0-2.62-1.04-5.12-2.89-6.97Z"/><path class="cls-1" d="m138.15,49.06l-3.62-7.62s-.05-.07-.1-.07h-4.18s-.1.05-.1.1v7.53c0,.15-.1.25-.25.25h-1.25c-.15,0-.25-.1-.25-.25v-16.73c0-.15.1-.25.25-.25h6.37c2.83,0,4.72,1.92,4.72,4.75,0,2.31-1.35,4.01-3.47,4.48-.05.02-.07.07-.05.12l3.69,7.58c.07.17,0,.29-.17.29h-1.3c-.12,0-.25-.05-.29-.17Zm-7.99-15.42v6.22s.05.1.1.1h4.58c1.89,0,3.2-1.3,3.2-3.2s-1.3-3.22-3.2-3.22h-4.58s-.1.05-.1.1Z"/><path class="cls-1" d="m142.61,46.01c-.25-.81-.34-1.84-.34-3.03s.1-2.21.34-3c.62-2.09,2.41-3.39,4.85-3.39s4.13,1.3,4.75,3.37c.27.84.34,1.87.34,3.03s-.07,2.21-.34,3.03c-.62,2.12-2.41,3.42-4.77,3.42s-4.18-1.3-4.82-3.42Zm7.97-.52c.15-.59.22-1.5.22-2.48,0-1.08-.07-1.94-.2-2.48-.39-1.45-1.57-2.41-3.2-2.41s-2.78.96-3.17,2.41c-.12.54-.2,1.45-.2,2.48s.07,1.94.2,2.48c.37,1.48,1.55,2.41,3.2,2.41s2.75-.93,3.15-2.41Z"/><path class="cls-1" d="m155.88,46.01c-.25-.84-.32-1.79-.32-3.05,0-1.35.12-2.24.32-3,.59-2.02,2.38-3.37,4.77-3.37s4.33,1.43,4.82,3.17c.07.29.12.54.15.74.02.17-.07.25-.22.27l-1.23.17c-.15.02-.25-.07-.27-.22l-.07-.37c-.27-1.21-1.48-2.24-3.17-2.24s-2.8.98-3.12,2.39c-.12.52-.22,1.38-.22,2.48,0,1.21.1,2.02.22,2.51.32,1.43,1.45,2.41,3.12,2.41s2.88-.96,3.17-2.24v-.1s.02-.07.02-.1c.03-.17.15-.22.29-.2l1.21.2c.15.03.25.1.22.27-.03.12-.05.3-.1.49-.49,1.89-2.41,3.2-4.82,3.2s-4.16-1.35-4.77-3.42Z"/><path class="cls-1" d="m168.72,48.99v-16.73c0-.15.1-.25.25-.25h1.25c.15,0,.25.1.25.25v10.06c0,.07.07.1.12.05l5.21-5.46c.07-.07.17-.12.3-.12h1.47c.2,0,.29.15.15.29l-3.15,3.49s-.05.07-.03.12l3.76,8.24c.07.17-.02.29-.2.29h-1.33c-.12,0-.22-.05-.27-.2l-3.17-7.18s-.07-.07-.12-.02l-2.71,2.85s-.05.07-.05.12v4.18c0,.15-.1.25-.25.25h-1.25c-.15,0-.25-.1-.25-.25Z"/><path class="cls-1" d="m183.78,49.03l-3.49-11.98c-.05-.17.05-.27.22-.27h1.28c.15,0,.25.1.27.22l2.61,9.69c.02.07.1.07.12,0l2.66-9.69c.02-.12.12-.22.27-.22h1.18c.15,0,.25.07.27.2l2.68,9.69c.03.07.12.07.15,0l2.68-9.67c.03-.12.12-.22.27-.22l1.28.02c.17,0,.27.1.22.27l-3.54,11.95c-.05.12-.12.2-.27.2h-1.3c-.15,0-.22-.07-.27-.2l-2.68-9.2c-.02-.07-.1-.07-.12,0l-2.61,9.2c-.05.12-.12.2-.27.2h-1.33c-.15,0-.22-.07-.27-.2Z"/><path class="cls-1" d="m208.62,43.43c0,.15-.1.25-.25.25h-7.95s-.1.02-.1.1c.02.76.05,1.38.15,1.75.34,1.43,1.53,2.39,3.35,2.39,1.48.02,2.53-.66,3.12-1.8.1-.15.2-.2.35-.1l.96.57c.12.07.17.2.1.34-.81,1.55-2.51,2.53-4.67,2.53-2.36-.05-3.94-1.21-4.62-3.1-.34-.91-.44-2.02-.44-3.39,0-1.21.03-2.09.22-2.85.54-2.12,2.31-3.52,4.75-3.52,3.07,0,4.58,1.67,4.94,4.33.1.66.12,1.28.1,2.51Zm-8.09-3c-.12.42-.17,1.01-.2,1.67,0,.07.05.1.1.1h6.37s.1-.02.1-.1c-.02-.66-.07-1.25-.15-1.57-.35-1.43-1.48-2.41-3.17-2.41s-2.73.96-3.05,2.31Z"/><path class="cls-1" d="m211.97,48.99v-16.73c0-.15.1-.25.25-.25h1.25c.15,0,.25.1.25.25v16.73c0,.15-.1.25-.25.25h-1.25c-.15,0-.25-.1-.25-.25Z"/><path class="cls-1" d="m217.53,48.99v-16.73c0-.15.1-.25.25-.25h1.25c.15,0,.25.1.25.25v16.73c0,.15-.1.25-.25.25h-1.25c-.15,0-.25-.1-.25-.25Z"/><path class="cls-1" d="m238.36,49.03l-.98-3.1c-.02-.07-.05-.07-.1-.07h-7.35s-.07,0-.1.07l-.98,3.1c-.05.12-.17.2-.29.2h-1.33c-.17,0-.25-.1-.2-.27l5.44-16.75c.05-.12.17-.2.29-.2h1.67c.12,0,.25.07.3.2l5.46,16.75c.05.17-.02.27-.2.27h-1.33c-.12,0-.25-.07-.3-.2Zm-7.94-4.6h6.35c.07,0,.12-.07.1-.12l-3.2-10.04c-.03-.07-.12-.07-.15,0l-3.2,10.04s.03.12.1.12Z"/><path class="cls-1" d="m250.63,36.79h1.26c.15,0,.25.1.25.25v11.95c0,.15-.1.25-.25.25h-1.26c-.15,0-.25-.1-.25-.25v-1.06c0-.07-.07-.12-.12-.05-.66.98-1.77,1.52-3.27,1.52-2.34,0-4.33-1.43-4.33-4.06v-8.31c0-.15.1-.25.25-.25h1.25c.15,0,.25.1.25.25v7.8c0,1.84,1.11,3.05,2.93,3.05s3.05-1.23,3.05-3.05v-7.8c0-.15.1-.25.25-.25Z"/><path class="cls-1" d="m261.41,38.24h-2.78s-.1.05-.1.1v7.26c0,1.6.71,2.14,2.19,2.14h.62c.15,0,.25.1.25.25v1.01c0,.15-.07.25-.25.25-.29.02-.59.02-.91.02-2.14,0-3.59-.57-3.59-3.12v-7.8s-.05-.1-.1-.1h-1.5c-.15,0-.25-.1-.25-.25v-.96c0-.15.1-.25.25-.25h1.5s.1-.05.1-.1v-2.85c0-.15.1-.25.25-.25h1.21c.15,0,.25.1.25.25v2.85s.05.1.1.1h2.78c.15,0,.25.1.25.25v.96c0,.15-.1.25-.25.25Z"/><path class="cls-1" d="m264.35,46.01c-.25-.81-.34-1.84-.34-3.03s.1-2.21.34-3c.61-2.09,2.41-3.39,4.85-3.39s4.13,1.3,4.75,3.37c.27.84.34,1.87.34,3.03s-.07,2.21-.34,3.03c-.62,2.12-2.41,3.42-4.77,3.42s-4.18-1.3-4.82-3.42Zm7.97-.52c.15-.59.22-1.5.22-2.48,0-1.08-.07-1.94-.2-2.48-.39-1.45-1.57-2.41-3.2-2.41s-2.78.96-3.17,2.41c-.12.54-.2,1.45-.2,2.48s.07,1.94.2,2.48c.37,1.48,1.55,2.41,3.2,2.41s2.75-.93,3.15-2.41Z"/><path class="cls-1" d="m294.31,40.75v8.24c0,.15-.1.25-.25.25h-1.23c-.15,0-.25-.1-.25-.25v-7.9c0-1.82-1.13-2.95-2.8-2.95s-2.9,1.11-2.9,2.9v7.94c0,.15-.1.25-.25.25h-1.25c-.15,0-.25-.1-.25-.25v-7.9c0-1.82-1.11-2.95-2.8-2.95s-2.85,1.11-2.85,2.9v7.94c0,.15-.1.25-.25.25h-1.25c-.15,0-.25-.1-.25-.25v-11.95c0-.15.1-.25.25-.25h1.25c.15,0,.25.1.25.25v.98c0,.07.05.1.12.03.74-.96,1.92-1.43,3.27-1.43,1.7,0,2.95.71,3.57,2.02.03.07.07.07.12,0,.74-1.4,2.16-2.02,3.76-2.02,2.44,0,3.98,1.55,3.98,4.13Z"/><path class="cls-1" d="m307.09,40.72v8.26c0,.15-.1.25-.25.25h-1.25c-.15,0-.25-.1-.25-.25v-1.01c0-.07-.05-.12-.12-.05-.84.98-2.21,1.5-3.79,1.5-2.09,0-4.11-1.01-4.11-3.59s1.87-3.98,5.07-3.98h2.85s.1-.05.1-.1v-.93c0-1.6-.84-2.71-2.88-2.71-1.57,0-2.61.66-2.83,1.72-.05.17-.15.25-.29.22l-1.33-.17c-.15-.02-.25-.1-.22-.2.27-1.82,2.09-3.1,4.67-3.1,3,0,4.62,1.7,4.62,4.13Zm-1.75,4.53v-1.92s-.05-.1-.1-.1h-2.58c-2.14,0-3.59.91-3.59,2.51,0,1.5,1.18,2.19,2.71,2.19,1.82,0,3.57-.96,3.57-2.68Z"/><path class="cls-1" d="m315.93,38.24h-2.78s-.1.05-.1.1v7.26c0,1.6.71,2.14,2.19,2.14h.62c.15,0,.25.1.25.25v1.01c0,.15-.07.25-.25.25-.29.02-.59.02-.91.02-2.14,0-3.59-.57-3.59-3.12v-7.8s-.05-.1-.1-.1h-1.5c-.15,0-.25-.1-.25-.25v-.96c0-.15.1-.25.25-.25h1.5s.1-.05.1-.1v-2.85c0-.15.1-.25.25-.25h1.21c.15,0,.25.1.25.25v2.85s.05.1.1.1h2.78c.15,0,.25.1.25.25v.96c0,.15-.1.25-.25.25Z"/><path class="cls-1" d="m318.96,33.14c0-.81.59-1.38,1.38-1.38s1.38.57,1.38,1.38-.59,1.38-1.38,1.38-1.38-.59-1.38-1.38Zm.44,15.82v-11.95c0-.15.1-.25.25-.25h1.25c.15,0,.25.1.25.25v11.95c0,.15-.1.25-.25.25h-1.25c-.15,0-.25-.1-.25-.25Z"/><path class="cls-1" d="m325.02,46.01c-.24-.81-.34-1.84-.34-3.03s.1-2.21.34-3c.62-2.09,2.41-3.39,4.85-3.39s4.13,1.3,4.75,3.37c.27.84.34,1.87.34,3.03s-.07,2.21-.34,3.03c-.62,2.12-2.41,3.42-4.77,3.42s-4.18-1.3-4.82-3.42Zm7.97-.52c.15-.59.22-1.5.22-2.48,0-1.08-.07-1.94-.2-2.48-.39-1.45-1.57-2.41-3.2-2.41s-2.78.96-3.17,2.41c-.12.54-.2,1.45-.2,2.48s.07,1.94.2,2.48c.37,1.48,1.55,2.41,3.2,2.41s2.75-.93,3.15-2.41Z"/><path class="cls-1" d="m347.87,40.87v8.12c0,.15-.1.25-.25.25h-1.25c-.15,0-.25-.1-.25-.25v-7.77c0-1.82-1.21-3.08-2.95-3.08s-3.03,1.23-3.03,3.03v7.82c0,.15-.1.25-.25.25h-1.25c-.15,0-.25-.1-.25-.25v-11.95c0-.15.1-.25.25-.25h1.25c.15,0,.25.1.25.25v1.06c0,.07.05.12.1.05.74-1.03,1.89-1.52,3.32-1.52,2.61,0,4.3,1.67,4.3,4.25Z"/><path class="cls-1" d="m356.11,48.94v-16.63c0-.17.12-.29.3-.29h2.88c.17,0,.29.12.29.29v16.63c0,.17-.12.29-.29.29h-2.88c-.17,0-.3-.12-.3-.29Z"/><path class="cls-1" d="m373.32,40.87v8.07c0,.17-.12.29-.29.29h-2.88c-.17,0-.29-.12-.29-.29v-7.35c0-1.3-.81-2.21-2.02-2.21s-2.02.89-2.02,2.21v7.35c0,.17-.12.29-.29.29h-2.88c-.17,0-.29-.12-.29-.29v-12.05c0-.17.12-.29.29-.29h2.88c.17,0,.29.12.29.29v.86c0,.1.07.15.12.07.69-.98,1.7-1.43,3-1.43,2.58,0,4.38,1.67,4.38,4.48Z"/><path class="cls-1" d="m383.88,32.01h2.88c.17,0,.29.12.29.29v16.63c0,.17-.12.29-.29.29h-2.88c-.17,0-.29-.12-.29-.29v-.81c0-.1-.07-.12-.15-.05-.64.84-1.55,1.35-2.83,1.35-2.31,0-4.04-1.38-4.75-3.59-.29-.91-.42-1.92-.42-2.98s.12-2.12.44-3.05c.71-2.02,2.34-3.42,4.79-3.42,1.26,0,2.14.47,2.76,1.23.07.1.15.05.15-.05v-5.26c0-.17.12-.29.29-.29Zm-.32,10.9c0-1.08-.17-1.94-.54-2.58-.37-.62-.94-.96-1.65-.96-.79,0-1.35.32-1.75.96-.39.62-.62,1.5-.62,2.61,0,.98.2,1.84.52,2.46.39.66,1.01,1.06,1.82,1.06.76,0,1.33-.39,1.72-1.06.32-.59.49-1.48.49-2.48Z"/><path class="cls-1" d="m397.33,36.59h2.88c.17,0,.29.12.29.29v12.05c0,.17-.12.29-.29.29h-2.88c-.17,0-.29-.12-.29-.29v-.84c0-.1-.07-.12-.15-.02-.64.86-1.65,1.33-3.05,1.33-2.39,0-4.28-1.48-4.28-4.3v-8.21c0-.17.12-.29.29-.29h2.85c.17,0,.29.12.29.29v7.35c0,1.3.74,2.21,1.99,2.21,1.13,0,1.89-.74,2.04-1.82v-7.75c0-.17.12-.29.29-.29Z"/><path class="cls-1" d="m402.64,45.74v-.25c0-.17.12-.3.29-.3h2.73c.17,0,.29.12.29.3v.02c0,.71.89,1.3,2.12,1.3,1.11,0,1.87-.49,1.87-1.16,0-.98-1.89-.96-3.71-1.7-1.67-.57-3.44-1.4-3.44-3.59,0-2.46,2.09-3.96,5.16-3.96s5.24,1.65,5.24,3.99c0,.17-.12.29-.29.29h-2.63c-.17,0-.29-.12-.29-.29,0-.71-.76-1.28-2.02-1.28-1.06,0-1.84.39-1.84,1.11,0,.98,1.7,1.06,3.54,1.62,1.92.57,3.76,1.43,3.76,3.69,0,2.48-2.14,3.86-5.31,3.86-3.35,0-5.46-1.52-5.46-3.67Z"/><path class="cls-1" d="m422.34,39.37h-2.36c-.07,0-.12.05-.12.12v5.21c0,1.08.42,1.6,1.4,1.6h.81c.17,0,.29.12.29.29v2.34c0,.17-.1.29-.29.32-.52.02-1.01.05-1.48.05-2.51,0-4.06-.59-4.08-3.22v-6.59c0-.07-.05-.12-.12-.12h-1.4c-.17,0-.3-.12-.3-.29v-2.19c0-.17.12-.29.3-.29h1.4c.07,0,.12-.05.12-.12v-2.93c0-.17.12-.29.3-.29h2.75c.17,0,.29.12.29.29v2.93c0,.07.05.12.12.12h2.36c.17,0,.29.12.29.29v2.19c0,.17-.12.29-.29.29Z"/><path class="cls-1" d="m432.43,36.76c.15.07.17.22.15.37l-.52,2.8c-.03.2-.15.25-.34.17-.32-.1-.86-.17-1.4-.07-1.11.1-2.12.86-2.12,2.19v6.71c0,.17-.12.29-.29.29h-2.88c-.17,0-.29-.12-.29-.29v-12.05c0-.17.12-.29.29-.29h2.88c.17,0,.29.12.29.29v.93c0,.1.07.15.12.07.62-.91,1.5-1.48,2.71-1.48.64,0,1.11.15,1.4.34Z"/><path class="cls-1" d="m434.17,53.83v-2.26c0-.17.12-.29.29-.29,1.94-.03,2.76-.32,3.15-1.97.03-.05.03-.07,0-.15l-4.03-12.25c-.07-.22.05-.34.25-.34h3.07c.17,0,.29.07.34.25l2.07,7.97c.03.1.12.1.15,0l2.07-7.97c.05-.17.17-.25.34-.25h3c.2,0,.3.12.22.34l-4.26,12.79c-1.13,3.3-2.04,4.43-6.32,4.43h-.17c-.1,0-.17-.12-.17-.29Z"/><path class="cls-1" d="m451.34,44.29v-.54c0-.17.12-.29.29-.29h2.8c.17,0,.29.12.29.29v.37c0,1.25,1.23,2.34,3.37,2.34,1.87,0,2.58-.93,2.58-1.92,0-1.25-1.26-1.7-3.62-2.56-2.56-.89-5.48-2.04-5.48-5.29,0-3.03,2.46-4.87,6-4.87,3.76,0,6.44,2.12,6.44,5.29v.37c0,.17-.12.3-.29.3h-2.83c-.17,0-.29-.12-.29-.3v-.2c0-1.28-1.11-2.48-3.17-2.48-1.55,0-2.46.69-2.46,1.84,0,1.28,1.11,1.72,3.84,2.68,2.21.81,5.34,1.77,5.34,5.12,0,3.1-2.46,4.99-6.3,4.99s-6.52-2.02-6.52-5.14Z"/><path class="cls-1" d="m466.39,45.39c-.22-.74-.34-1.62-.34-2.51,0-.94.12-1.87.34-2.61.76-2.41,2.8-3.89,5.58-3.89s4.7,1.48,5.46,3.86c.25.76.39,1.67.39,2.58s-.12,1.75-.34,2.48c-.71,2.53-2.76,4.11-5.54,4.11s-4.85-1.55-5.56-4.03Zm7.75-.79c.12-.49.2-1.11.2-1.72,0-.66-.07-1.3-.2-1.75-.34-1.11-1.11-1.77-2.21-1.77s-1.87.69-2.19,1.77c-.15.44-.2,1.08-.2,1.75s.05,1.28.17,1.72c.32,1.13,1.11,1.84,2.24,1.84s1.87-.71,2.19-1.84Z"/><path class="cls-1" d="m480.06,48.94v-16.63c0-.17.12-.29.29-.29h2.88c.17,0,.29.12.29.29v16.63c0,.17-.12.29-.29.29h-2.88c-.17,0-.29-.12-.29-.29Z"/><path class="cls-1" d="m493.74,36.59h2.88c.17,0,.29.12.29.29v12.05c0,.17-.12.29-.29.29h-2.88c-.17,0-.29-.12-.29-.29v-.84c0-.1-.07-.12-.15-.02-.64.86-1.65,1.33-3.05,1.33-2.39,0-4.28-1.48-4.28-4.3v-8.21c0-.17.12-.29.29-.29h2.85c.17,0,.29.12.29.29v7.35c0,1.3.74,2.21,1.99,2.21,1.13,0,1.89-.74,2.04-1.82v-7.75c0-.17.12-.29.29-.29Z"/><path class="cls-1" d="m506.43,39.37h-2.36c-.07,0-.12.05-.12.12v5.21c0,1.08.42,1.6,1.4,1.6h.81c.17,0,.29.12.29.29v2.34c0,.17-.1.29-.29.32-.52.02-1.01.05-1.48.05-2.51,0-4.06-.59-4.08-3.22v-6.59c0-.07-.05-.12-.12-.12h-1.4c-.17,0-.3-.12-.3-.29v-2.19c0-.17.12-.29.3-.29h1.4c.07,0,.12-.05.12-.12v-2.93c0-.17.12-.29.3-.29h2.75c.17,0,.29.12.29.29v2.93c0,.07.05.12.12.12h2.36c.17,0,.29.12.29.29v2.19c0,.17-.12.29-.29.29Z"/><path class="cls-1" d="m508.74,33.22c0-1.16.81-1.94,1.94-1.94s1.94.79,1.94,1.94-.84,1.94-1.94,1.94-1.94-.84-1.94-1.94Zm.17,15.72v-12.08c0-.17.12-.3.3-.3h2.88c.17,0,.29.12.29.3v12.08c0,.17-.12.29-.29.29h-2.88c-.17,0-.3-.12-.3-.29Z"/><path class="cls-1" d="m515.11,45.39c-.22-.74-.35-1.62-.35-2.51,0-.94.12-1.87.35-2.61.76-2.41,2.8-3.89,5.58-3.89s4.7,1.48,5.46,3.86c.25.76.39,1.67.39,2.58s-.12,1.75-.35,2.48c-.71,2.53-2.75,4.11-5.53,4.11s-4.85-1.55-5.56-4.03Zm7.75-.79c.12-.49.2-1.11.2-1.72,0-.66-.07-1.3-.2-1.75-.35-1.11-1.11-1.77-2.21-1.77s-1.87.69-2.19,1.77c-.15.44-.2,1.08-.2,1.75s.05,1.28.17,1.72c.32,1.13,1.11,1.84,2.24,1.84s1.87-.71,2.19-1.84Z"/><path class="cls-1" d="m539.76,40.87v8.07c0,.17-.12.29-.29.29h-2.88c-.17,0-.29-.12-.29-.29v-7.35c0-1.3-.81-2.21-2.02-2.21s-2.02.89-2.02,2.21v7.35c0,.17-.12.29-.29.29h-2.88c-.17,0-.29-.12-.29-.29v-12.05c0-.17.12-.29.29-.29h2.88c.17,0,.29.12.29.29v.86c0,.1.07.15.12.07.69-.98,1.7-1.43,3-1.43,2.58,0,4.38,1.67,4.38,4.48Z"/><path class="cls-1" d="m541.82,45.74v-.25c0-.17.12-.3.29-.3h2.73c.17,0,.29.12.29.3v.02c0,.71.89,1.3,2.12,1.3,1.11,0,1.87-.49,1.87-1.16,0-.98-1.89-.96-3.71-1.7-1.67-.57-3.44-1.4-3.44-3.59,0-2.46,2.09-3.96,5.16-3.96s5.24,1.65,5.24,3.99c0,.17-.12.29-.29.29h-2.63c-.17,0-.29-.12-.29-.29,0-.71-.76-1.28-2.02-1.28-1.06,0-1.84.39-1.84,1.11,0,.98,1.7,1.06,3.54,1.62,1.92.57,3.76,1.43,3.76,3.69,0,2.48-2.14,3.86-5.31,3.86-3.35,0-5.46-1.52-5.46-3.67Z"/><path class="cls-1" d="m146.1,83.06c3.69,1.49,5.64,4.46,5.64,8.66,0,6.25-4.46,9.74-10.71,9.74h-12.4c-.31,0-.51-.21-.51-.51v-34.84c0-.31.21-.51.51-.51h12.04c6.51,0,10.66,3.33,10.66,9.38,0,3.84-1.9,6.46-5.23,7.79-.15.1-.15.21,0,.31Zm-14.35-14.09v12.3c0,.1.1.21.2.21h8.71c4.3,0,7.07-2.41,7.07-6.2s-2.77-6.51-7.07-6.51h-8.71c-.1,0-.2.1-.2.21Zm16.34,22.44c0-4.15-2.82-6.87-7.28-6.87h-8.86c-.1,0-.2.1-.2.21v13.27c0,.1.1.2.2.2h9.07c4.3,0,7.07-2.66,7.07-6.81Z"/><path class="cls-1" d="m177.79,83.73v17.22c0,.31-.2.51-.51.51h-2.61c-.31,0-.51-.21-.51-.51v-2.1c0-.15-.1-.26-.26-.1-1.74,2.05-4.61,3.13-7.89,3.13-4.36,0-8.56-2.1-8.56-7.48s3.89-8.3,10.56-8.3h5.94c.1,0,.21-.1.21-.2v-1.95c0-3.33-1.74-5.64-6-5.64-3.28,0-5.43,1.38-5.89,3.59-.1.36-.31.51-.61.46l-2.77-.36c-.31-.05-.51-.21-.46-.41.56-3.79,4.36-6.46,9.74-6.46,6.25,0,9.63,3.54,9.63,8.61Zm-3.64,9.43v-4c0-.1-.1-.21-.21-.21h-5.38c-4.46,0-7.48,1.9-7.48,5.23,0,3.13,2.46,4.56,5.64,4.56,3.79,0,7.43-2,7.43-5.58Z"/><path class="cls-1" d="m195.7,78.55h-5.79c-.1,0-.21.1-.21.21v15.12c0,3.33,1.49,4.46,4.56,4.46h1.28c.31,0,.51.21.51.51v2.1c0,.31-.15.51-.51.51-.62.05-1.23.05-1.9.05-4.46,0-7.48-1.18-7.48-6.51v-16.24c0-.1-.1-.21-.21-.21h-3.13c-.31,0-.51-.2-.51-.51v-2c0-.31.21-.51.51-.51h3.13c.1,0,.21-.1.21-.21v-5.94c0-.31.21-.51.51-.51h2.51c.31,0,.51.21.51.51v5.94c0,.1.1.21.21.21h5.79c.31,0,.51.21.51.51v2c0,.31-.21.51-.51.51Z"/><path class="cls-1" d="m201.27,94.75c-.51-1.74-.67-3.74-.67-6.35,0-2.82.26-4.66.67-6.25,1.23-4.2,4.97-7.02,9.94-7.02s9.02,2.97,10.04,6.61c.15.61.26,1.13.31,1.54.05.36-.15.51-.46.56l-2.56.36c-.31.05-.51-.15-.56-.46l-.15-.77c-.56-2.51-3.07-4.66-6.61-4.66s-5.84,2.05-6.51,4.97c-.26,1.08-.46,2.87-.46,5.17,0,2.51.2,4.2.46,5.23.67,2.97,3.02,5.02,6.51,5.02s6-2,6.61-4.66v-.21c.05-.1.05-.15.05-.21.05-.36.31-.46.62-.41l2.51.41c.31.05.51.21.46.56-.05.26-.1.62-.21,1.03-1.02,3.95-5.02,6.66-10.04,6.66s-8.66-2.82-9.94-7.12Z"/><path class="cls-1" d="m247.25,84.04v16.91c0,.31-.21.51-.51.51h-2.61c-.31,0-.51-.21-.51-.51v-16.19c0-3.79-2.51-6.4-6.15-6.4s-6.3,2.56-6.3,6.3v16.29c0,.31-.21.51-.51.51h-2.61c-.31,0-.51-.21-.51-.51v-34.84c0-.31.21-.51.51-.51h2.61c.31,0,.51.21.51.51v12.14c0,.15.1.26.21.1,1.54-2.15,3.95-3.18,6.92-3.18,5.43,0,8.97,3.48,8.97,8.86Z"/><path class="cls-1" d="m289.72,75.58c0,5.94-4.05,9.89-10.15,9.89h-9.99c-.1,0-.21.1-.21.21v15.27c0,.31-.21.51-.51.51h-2.61c-.31,0-.51-.21-.51-.51v-34.89c0-.31.21-.51.51-.51h13.48c6,0,9.99,4,9.99,10.04Zm-3.59.05c0-4.15-2.77-6.92-6.81-6.92h-9.73c-.1,0-.21.1-.21.21v13.32c0,.1.1.21.21.21h9.73c4.05,0,6.81-2.72,6.81-6.81Z"/><path class="cls-1" d="m314.98,89.36c0,.31-.21.51-.51.51h-16.55c-.1,0-.21.05-.21.21.05,1.59.1,2.87.31,3.64.72,2.97,3.18,4.97,6.97,4.97,3.07.05,5.28-1.38,6.51-3.74.21-.31.41-.41.72-.2l2,1.18c.26.15.36.41.21.72-1.69,3.23-5.23,5.28-9.74,5.28-4.92-.1-8.2-2.51-9.63-6.46-.72-1.9-.92-4.2-.92-7.07,0-2.51.05-4.35.46-5.94,1.13-4.41,4.82-7.33,9.89-7.33,6.41,0,9.53,3.48,10.3,9.02.21,1.38.26,2.66.21,5.23Zm-16.86-6.25c-.26.87-.36,2.1-.41,3.48,0,.15.1.21.21.21h13.27c.1,0,.21-.05.21-.21-.05-1.38-.15-2.61-.31-3.28-.72-2.97-3.07-5.02-6.61-5.02s-5.69,2-6.35,4.82Z"/><path class="cls-1" d="m334.83,75.94c.31.15.36.41.31.67l-.56,2.51c-.1.31-.31.46-.67.31-.67-.26-1.54-.41-2.66-.31-3.54.1-6.15,2.87-6.15,6.71v15.12c0,.31-.21.51-.51.51h-2.61c-.31,0-.51-.21-.51-.51v-24.9c0-.31.2-.51.51-.51h2.61c.31,0,.51.21.51.51v3.12c0,.21.15.26.21.1,1.38-2.46,3.59-4,6.61-4,1.38,0,2.26.31,2.92.67Z"/><path class="cls-1" d="m346.76,74.3v1.02c0,.1.1.21.21.21h5.74c.31,0,.51.21.51.51v2.31c0,.31-.21.51-.51.51h-5.74c-.1,0-.21.1-.21.21v21.88c0,.31-.21.51-.51.51h-2.56c-.31,0-.51-.21-.51-.51v-21.88c0-.1-.1-.21-.21-.21h-3.43c-.31,0-.51-.21-.51-.51v-2.31c0-.31.21-.51.51-.51h3.43c.1,0,.21-.1.21-.21v-1.23c0-6.1,1.79-8.51,8.15-8.51h1.49c.31,0,.51.21.51.51v2.15c0,.31-.21.51-.51.51h-1.18c-3.89,0-4.87,1.64-4.87,5.53Z"/><path class="cls-1" d="m358.16,94.75c-.51-1.69-.72-3.84-.72-6.3s.21-4.61.72-6.25c1.28-4.36,5.02-7.07,10.09-7.07s8.61,2.72,9.89,7.02c.56,1.74.72,3.89.72,6.3s-.15,4.61-.72,6.3c-1.28,4.41-5.02,7.12-9.94,7.12s-8.71-2.72-10.04-7.12Zm16.6-1.08c.31-1.23.46-3.13.46-5.18,0-2.25-.15-4.05-.41-5.17-.82-3.02-3.28-5.02-6.66-5.02s-5.79,2-6.61,5.02c-.26,1.13-.41,3.02-.41,5.17s.15,4.05.41,5.18c.77,3.07,3.23,5.02,6.66,5.02s5.74-1.95,6.56-5.02Z"/><path class="cls-1" d="m398.9,75.94c.31.15.36.41.31.67l-.56,2.51c-.1.31-.31.46-.67.31-.67-.26-1.54-.41-2.66-.31-3.54.1-6.15,2.87-6.15,6.71v15.12c0,.31-.21.51-.51.51h-2.61c-.31,0-.51-.21-.51-.51v-24.9c0-.31.2-.51.51-.51h2.61c.31,0,.51.21.51.51v3.12c0,.21.15.26.21.1,1.38-2.46,3.59-4,6.61-4,1.38,0,2.26.31,2.92.67Z"/><path class="cls-1" d="m438.74,83.78v17.17c0,.31-.21.51-.51.51h-2.56c-.31,0-.51-.21-.51-.51v-16.45c0-3.79-2.36-6.15-5.84-6.15s-6.05,2.31-6.05,6.05v16.55c0,.31-.21.51-.51.51h-2.61c-.31,0-.51-.21-.51-.51v-16.45c0-3.79-2.31-6.15-5.84-6.15s-5.94,2.31-5.94,6.05v16.55c0,.31-.21.51-.51.51h-2.61c-.31,0-.51-.21-.51-.51v-24.9c0-.31.21-.51.51-.51h2.61c.31,0,.51.21.51.51v2.05c0,.15.1.21.26.05,1.54-2,4-2.97,6.81-2.97,3.54,0,6.15,1.49,7.43,4.2.05.15.15.15.26,0,1.54-2.92,4.51-4.2,7.84-4.2,5.07,0,8.3,3.23,8.3,8.61Z"/><path class="cls-1" d="m464.88,83.73v17.22c0,.31-.21.51-.51.51h-2.61c-.31,0-.51-.21-.51-.51v-2.1c0-.15-.1-.26-.26-.1-1.74,2.05-4.61,3.13-7.89,3.13-4.36,0-8.56-2.1-8.56-7.48s3.89-8.3,10.55-8.3h5.95c.1,0,.2-.1.2-.2v-1.95c0-3.33-1.74-5.64-5.99-5.64-3.28,0-5.43,1.38-5.89,3.59-.1.36-.31.51-.62.46l-2.77-.36c-.31-.05-.51-.21-.46-.41.56-3.79,4.36-6.46,9.74-6.46,6.25,0,9.63,3.54,9.63,8.61Zm-3.64,9.43v-4c0-.1-.1-.21-.2-.21h-5.38c-4.46,0-7.48,1.9-7.48,5.23,0,3.13,2.46,4.56,5.63,4.56,3.79,0,7.43-2,7.43-5.58Z"/><path class="cls-1" d="m491.79,84.04v16.91c0,.31-.21.51-.51.51h-2.61c-.31,0-.51-.21-.51-.51v-16.19c0-3.79-2.51-6.4-6.15-6.4s-6.3,2.56-6.3,6.3v16.29c0,.31-.21.51-.51.51h-2.61c-.31,0-.51-.21-.51-.51v-24.9c0-.31.2-.51.51-.51h2.61c.31,0,.51.21.51.51v2.2c0,.15.1.26.21.1,1.54-2.15,3.95-3.18,6.92-3.18,5.43,0,8.97,3.48,8.97,8.86Z"/><path class="cls-1" d="m498.91,94.75c-.51-1.74-.67-3.74-.67-6.35,0-2.82.26-4.66.67-6.25,1.23-4.2,4.97-7.02,9.94-7.02s9.02,2.97,10.04,6.61c.15.61.26,1.13.31,1.54.05.36-.15.51-.46.56l-2.56.36c-.31.05-.51-.15-.56-.46l-.15-.77c-.56-2.51-3.07-4.66-6.61-4.66s-5.84,2.05-6.51,4.97c-.26,1.08-.46,2.87-.46,5.17,0,2.51.21,4.2.46,5.23.67,2.97,3.02,5.02,6.51,5.02s5.99-2,6.61-4.66v-.21c.05-.1.05-.15.05-.21.05-.36.31-.46.62-.41l2.51.41c.31.05.51.21.46.56-.05.26-.1.62-.21,1.03-1.03,3.95-5.02,6.66-10.04,6.66s-8.66-2.82-9.94-7.12Z"/><path class="cls-1" d="m545.35,89.36c0,.31-.21.51-.51.51h-16.55c-.1,0-.21.05-.21.21.05,1.59.1,2.87.31,3.64.72,2.97,3.18,4.97,6.97,4.97,3.07.05,5.28-1.38,6.51-3.74.21-.31.41-.41.72-.2l2,1.18c.26.15.36.41.21.72-1.69,3.23-5.23,5.28-9.74,5.28-4.92-.1-8.2-2.51-9.63-6.46-.72-1.9-.92-4.2-.92-7.07,0-2.51.05-4.35.46-5.94,1.13-4.41,4.82-7.33,9.89-7.33,6.41,0,9.53,3.48,10.3,9.02.21,1.38.26,2.66.21,5.23Zm-16.86-6.25c-.26.87-.36,2.1-.41,3.48,0,.15.1.21.21.21h13.27c.1,0,.21-.05.21-.21-.05-1.38-.15-2.61-.31-3.28-.72-2.97-3.07-5.02-6.61-5.02s-5.69,2-6.35,4.82Z"/><path class="cls-1" d="m584.19,101.05l-2.05-6.46c-.05-.15-.1-.15-.21-.15h-15.32c-.1,0-.15,0-.21.15l-2.05,6.46c-.1.26-.36.41-.62.41h-2.77c-.36,0-.51-.21-.41-.56l11.32-34.89c.1-.26.36-.41.62-.41h3.48c.26,0,.51.15.62.41l11.38,34.89c.1.36-.05.56-.41.56h-2.77c-.26,0-.51-.15-.62-.41Zm-16.55-9.58h13.22c.15,0,.26-.15.21-.26l-6.66-20.91c-.05-.15-.26-.15-.31,0l-6.66,20.91c-.05.1.05.26.21.26Z"/><path class="cls-1" d="m613.42,84.04v16.91c0,.31-.21.51-.51.51h-2.61c-.31,0-.51-.21-.51-.51v-16.19c0-3.79-2.51-6.4-6.15-6.4s-6.3,2.56-6.3,6.3v16.29c0,.31-.21.51-.51.51h-2.61c-.31,0-.51-.21-.51-.51v-24.9c0-.31.21-.51.51-.51h2.61c.31,0,.51.21.51.51v2.2c0,.15.1.26.21.1,1.54-2.15,3.95-3.18,6.92-3.18,5.43,0,8.97,3.48,8.97,8.86Z"/><path class="cls-1" d="m639.44,83.73v17.22c0,.31-.21.51-.51.51h-2.61c-.31,0-.51-.21-.51-.51v-2.1c0-.15-.1-.26-.26-.1-1.74,2.05-4.61,3.13-7.89,3.13-4.36,0-8.56-2.1-8.56-7.48s3.89-8.3,10.55-8.3h5.95c.1,0,.2-.1.2-.2v-1.95c0-3.33-1.74-5.64-5.99-5.64-3.28,0-5.43,1.38-5.89,3.59-.1.36-.31.51-.62.46l-2.77-.36c-.31-.05-.51-.21-.46-.41.56-3.79,4.36-6.46,9.74-6.46,6.25,0,9.63,3.54,9.63,8.61Zm-3.64,9.43v-4c0-.1-.1-.21-.2-.21h-5.38c-4.46,0-7.48,1.9-7.48,5.23,0,3.13,2.46,4.56,5.63,4.56,3.79,0,7.43-2,7.43-5.58Z"/><path class="cls-1" d="m646.63,100.94v-34.84c0-.31.2-.51.51-.51h2.61c.31,0,.51.21.51.51v34.84c0,.31-.21.51-.51.51h-2.61c-.31,0-.51-.21-.51-.51Z"/><path class="cls-1" d="m656.68,111.19v-2.05c0-.31.21-.51.51-.51h.21c3.84-.05,4.97-1.28,6.71-7.02.05-.1.05-.26,0-.31l-8.66-25.21c-.1-.36.05-.56.41-.56h2.71c.26,0,.51.15.62.41l6.66,20.7c.05.15.26.15.31,0l6.56-20.7c.1-.26.36-.41.62-.41h2.66c.36,0,.51.21.41.56l-9.48,27.62c-2.3,6.56-3.84,7.99-9.53,7.99h-.36c-.21,0-.36-.21-.36-.51Z"/><path class="cls-1" d="m693.97,78.55h-5.79c-.1,0-.21.1-.21.21v15.12c0,3.33,1.49,4.46,4.56,4.46h1.28c.31,0,.51.21.51.51v2.1c0,.31-.15.51-.51.51-.62.05-1.23.05-1.9.05-4.46,0-7.48-1.18-7.48-6.51v-16.24c0-.1-.1-.21-.21-.21h-3.12c-.31,0-.51-.2-.51-.51v-2c0-.31.21-.51.51-.51h3.12c.1,0,.21-.1.21-.21v-5.94c0-.31.21-.51.51-.51h2.51c.31,0,.51.21.51.51v5.94c0,.1.1.21.21.21h5.79c.31,0,.51.21.51.51v2c0,.31-.21.51-.51.51Z"/><path class="cls-1" d="m699.75,67.95c0-1.69,1.23-2.87,2.87-2.87s2.87,1.18,2.87,2.87-1.23,2.87-2.87,2.87-2.87-1.23-2.87-2.87Zm.92,32.95v-24.9c0-.31.21-.51.51-.51h2.61c.31,0,.51.21.51.51v24.9c0,.31-.2.51-.51.51h-2.61c-.31,0-.51-.21-.51-.51Z"/><path class="cls-1" d="m711.81,94.75c-.51-1.74-.67-3.74-.67-6.35,0-2.82.26-4.66.67-6.25,1.23-4.2,4.97-7.02,9.94-7.02s9.02,2.97,10.04,6.61c.15.61.26,1.13.31,1.54.05.36-.15.51-.46.56l-2.56.36c-.31.05-.51-.15-.56-.46l-.15-.77c-.56-2.51-3.07-4.66-6.61-4.66s-5.84,2.05-6.51,4.97c-.26,1.08-.46,2.87-.46,5.17,0,2.51.21,4.2.46,5.23.67,2.97,3.02,5.02,6.51,5.02s5.99-2,6.61-4.66v-.21c.05-.1.05-.15.05-.21.05-.36.31-.46.62-.41l2.51.41c.31.05.51.21.46.56-.05.26-.1.62-.21,1.03-1.03,3.95-5.02,6.66-10.04,6.66s-8.66-2.82-9.94-7.12Z"/><path class="cls-1" d="m737.21,94.9v-.62c0-.31.21-.51.51-.51h2.46c.31,0,.51.21.51.51v.41c0,2.15,2.51,4.2,6.2,4.2s5.94-1.84,5.94-4.25c0-2.77-3.02-3.54-6.4-4.56-4.41-1.28-9.07-2.77-9.07-7.63,0-4.41,3.79-7.17,9.33-7.17s9.53,3.02,9.53,7.07v.15c0,.31-.21.51-.51.51h-2.41c-.31,0-.51-.21-.51-.51v-.15c0-2.25-2.31-4.1-6.15-4.1-3.43,0-5.79,1.49-5.79,3.95s2.77,3.48,6.3,4.51c4.3,1.23,9.33,2.61,9.33,7.69,0,4.41-3.79,7.33-9.53,7.33s-9.74-3.07-9.74-6.81Z"/></svg>